<?xml version="1.0" encoding="UTF-8" standalone="no"?>
<!-- Created with Inkscape (http://www.inkscape.org/) -->

<svg
   xmlns:dc="http://purl.org/dc/elements/1.1/"
   xmlns:cc="http://creativecommons.org/ns#"
   xmlns:rdf="http://www.w3.org/1999/02/22-rdf-syntax-ns#"
   xmlns:svg="http://www.w3.org/2000/svg"
   xmlns="http://www.w3.org/2000/svg"
   xmlns:sodipodi="http://sodipodi.sourceforge.net/DTD/sodipodi-0.dtd"
   xmlns:inkscape="http://www.inkscape.org/namespaces/inkscape"
   width="210mm"
   height="210mm"
   viewBox="0 0 210 210"
   version="1.1"
   id="svg8"
   inkscape:version="0.92.2 (5c3e80d, 2017-08-06)"
   sodipodi:docname="pharos.svg"
   inkscape:export-filename="/home/cfc/pharos/doc/pharos.png"
   inkscape:export-xdpi="30.963808"
   inkscape:export-ydpi="30.963808">
  <defs
     id="defs2" />
  <sodipodi:namedview
     id="base"
     pagecolor="#ffffff"
     bordercolor="#666666"
     borderopacity="1.0"
     inkscape:pageopacity="0.0"
     inkscape:pageshadow="2"
     inkscape:zoom="1.0"
     inkscape:cx="399.48665"
     inkscape:cy="278.32383"
     inkscape:document-units="mm"
     inkscape:current-layer="layer1"
     showgrid="false"
     inkscape:window-width="1588"
     inkscape:window-height="1704"
     inkscape:window-x="0"
     inkscape:window-y="548"
     inkscape:window-maximized="0" />
  <metadata
     id="metadata5">
    <rdf:RDF>
      <cc:Work
         rdf:about="">
        <dc:format>image/svg+xml</dc:format>
        <dc:type
           rdf:resource="http://purl.org/dc/dcmitype/StillImage" />
        <dc:title />
      </cc:Work>
    </rdf:RDF>
  </metadata>
  <g
     inkscape:label="graphic"
     inkscape:groupmode="layer"
     id="layer1"
     transform="translate(0,-87)">
    <rect
       style="opacity:1;fill:#ffffff;fill-opacity:1;stroke-width:0.25"
       id="background"
       width="214"
       height="214"
       x="-2"
       y="85.32254"
       inkscape:label="background" />
    <g
       aria-label="Pharos"
       style="fill:#000000;fill-opacity:1;stroke:none;stroke-width:0.25"
       id="ppharos"
       inkscape:label="pharos"
       inkscape:groupmode="layer">
      <path
         d="M 10.359225,252.15706 H 26.20942 q 7.069336,0 10.839648,3.1502 3.795117,3.12539 3.795117,8.92968 0,5.82911 -3.795117,8.9793 -3.770312,3.12539 -10.839648,3.12539 h -6.30039 v 12.84883 h -9.549805 z m 9.549805,6.92051 v 10.34355 h 5.283398 q 2.778125,0 4.291211,-1.33945 1.513086,-1.36426 1.513086,-3.84473 0,-2.48046 -1.513086,-3.81992 -1.513086,-1.33945 -4.291211,-1.33945 z"
         style="stroke-width:0.25"
         id="letterp"
         inkscape:connector-curvature="0"
         inkscape:label="letterp" />
      <path
         d="m 75.099459,272.27366 v 16.9168 h -8.929687 v -2.75332 -10.14512 q 0,-3.64629 -0.173633,-5.01054 -0.148828,-1.36426 -0.545703,-2.00918 -0.520899,-0.86817 -1.413867,-1.33946 -0.892969,-0.49609 -2.033985,-0.49609 -2.778125,0 -4.365625,2.15801 -1.5875,2.1332 -1.5875,5.92832 v 13.66738 h -8.880078 v -38.59609 h 8.880078 v 14.88281 q 2.00918,-2.43086 4.266406,-3.57188 2.257227,-1.16582 4.985743,-1.16582 4.812109,0 7.292578,2.95176 2.505273,2.95176 2.505273,8.58242 z"
         style="stroke-width:0.25"
         id="letterh"
         inkscape:connector-curvature="0"
         inkscape:label="letterh" />
      <path
         d="m 95.836178,276.6889 q -2.778125,0 -4.191992,0.94258 -1.389063,0.94257 -1.389063,2.77812 0,1.68672 1.116211,2.6541 1.141016,0.94258 3.150196,0.94258 2.505273,0 4.216796,-1.78594 1.711524,-1.81074 1.711524,-4.51445 v -1.01699 z m 13.568162,-3.34863 v 15.85019 h -8.95449 v -4.11758 q -1.785938,2.53008 -4.01836,3.6959 -2.232421,1.14102 -5.432226,1.14102 -4.316016,0 -7.019726,-2.50528 -2.678907,-2.53008 -2.678907,-6.54843 0,-4.88653 3.348633,-7.16856 3.373438,-2.28203 10.566797,-2.28203 h 5.233789 v -0.69453 q 0,-2.1084 -1.661914,-3.07578 -1.661914,-0.99219 -5.18418,-0.99219 -2.852539,0 -5.308203,0.57051 -2.455664,0.57051 -4.564062,1.71152 v -6.77168 q 2.852539,-0.69453 5.729882,-1.0418 2.877344,-0.37207 5.754688,-0.37207 7.515819,0 10.839649,2.97657 3.34863,2.95175 3.34863,9.62422 z"
         style="stroke-width:0.25"
         id="lettera"
         inkscape:connector-curvature="0"
         inkscape:label="lattera" />
      <path
         d="m 138.35141,268.97464 q -1.16582,-0.5457 -2.33164,-0.79375 -1.14102,-0.27285 -2.30684,-0.27285 -3.42305,0 -5.2834,2.20762 -1.83555,2.18281 -1.83555,6.27558 v 12.79922 h -8.88007 v -27.78125 h 8.88007 v 4.56406 q 1.71153,-2.72851 3.91914,-3.96875 2.23243,-1.26504 5.33301,-1.26504 0.44649,0 0.96739,0.0496 0.52089,0.0248 1.51308,0.14883 z"
         style="stroke-width:0.25"
         id="letterr"
         inkscape:connector-curvature="0"
         inkscape:label="letterr" />
      <path
         d="m 156.03715,267.08948 q -2.95176,0 -4.51446,2.13321 -1.53789,2.1084 -1.53789,6.10195 0,3.99355 1.53789,6.12676 1.5627,2.1084 4.51446,2.1084 2.90214,0 4.44003,-2.1084 1.53789,-2.13321 1.53789,-6.12676 0,-3.99355 -1.53789,-6.10195 -1.53789,-2.13321 -4.44003,-2.13321 z m 0,-6.35 q 7.16855,0 11.18691,3.86954 4.04316,3.86953 4.04316,10.71562 0,6.84609 -4.04316,10.71562 -4.01836,3.86954 -11.18691,3.86954 -7.19336,0 -11.26133,-3.86954 -4.04317,-3.86953 -4.04317,-10.71562 0,-6.84609 4.04317,-10.71562 4.06797,-3.86954 11.26133,-3.86954 z"
         style="stroke-width:0.25"
         id="lettero"
         inkscape:connector-curvature="0"
         inkscape:label="lettero" />
      <path
         d="m 199.44535,262.27737 v 6.74688 q -2.85254,-1.19063 -5.50664,-1.78594 -2.6541,-0.59531 -5.01055,-0.59531 -2.53007,0 -3.77031,0.64492 -1.21543,0.62012 -1.21543,1.93477 0,1.0666 0.91778,1.63711 0.94257,0.5705 3.34863,0.84336 l 1.56269,0.22324 q 6.82129,0.86816 9.17774,2.85254 2.35644,1.98437 2.35644,6.22597 0,4.44004 -3.27422,6.67246 -3.27421,2.23243 -9.77304,2.23243 -2.75332,0 -5.70508,-0.44649 -2.92695,-0.42168 -6.02754,-1.28984 v -6.74688 q 2.6541,1.28985 5.43223,1.93477 2.80293,0.64492 5.68027,0.64492 2.60449,0 3.91914,-0.71934 1.31465,-0.71933 1.31465,-2.1332 0,-1.19062 -0.91777,-1.76113 -0.89297,-0.59531 -3.59668,-0.91777 l -1.5627,-0.19844 q -5.92832,-0.74414 -8.30957,-2.75332 -2.38125,-2.00918 -2.38125,-6.10196 0,-4.41523 3.02617,-6.54843 3.02617,-2.13321 9.27696,-2.13321 2.45566,0 5.15937,0.37207 2.70371,0.37207 5.87871,1.16582 z"
         style="stroke-width:0.25"
         id="letters"
         inkscape:connector-curvature="0"
         inkscape:label="letters" />
    </g>
    <path
       style="fill:#000000;fill-opacity:1;stroke:#000000;stroke-width:0.25px;stroke-linecap:butt;stroke-linejoin:miter;stroke-opacity:1"
       d="m 133.77114,115.56357 41.01042,-15.30804 1.13393,15.11905 z"
       id="upperbeam"
       inkscape:connector-curvature="0"
       sodipodi:nodetypes="cccc"
       inkscape:label="upperbeam" />
    <path
       style="fill:#000000;fill-opacity:1;stroke:#000000;stroke-width:0.25px;stroke-linecap:butt;stroke-linejoin:miter;stroke-opacity:1"
       d="m 133.77114,119.53232 42.52232,6.2366 -2.64583,15.30804 z"
       id="lowerbeam"
       inkscape:connector-curvature="0"
       sodipodi:nodetypes="cccc"
       inkscape:label="lowerbeam" />
    <path
       style="fill:#000000;fill-opacity:1;stroke:#000000;stroke-width:0.25px;stroke-linecap:butt;stroke-linejoin:miter;stroke-opacity:1"
       d="m 116.38424,110.46089 13.22916,-0.18899 0.94495,13.79613 h -14.93006 z"
       id="lightroom"
       inkscape:connector-curvature="0"
       sodipodi:nodetypes="ccccc"
       inkscape:label="lightroom" />
    <rect
       style="fill:#000000;fill-opacity:1;stroke-width:0.25"
       id="platform"
       width="31.183035"
       height="8.5044641"
       x="107.50179"
       y="127.09184"
       inkscape:label="platform" />
    <path
       style="fill:#000000;fill-opacity:1;stroke:#000000;stroke-width:0.25px;stroke-linecap:butt;stroke-linejoin:miter;stroke-opacity:1"
       d="m 112.03751,138.8091 -7.9375,95.06101 37.41965,0.18899 -7.9375,-95.25 z"
       id="tower"
       inkscape:connector-curvature="0"
       inkscape:label="tower" />
    <path
       style="fill:#000000;fill-opacity:1;stroke:#000000;stroke-width:0.25px;stroke-linecap:butt;stroke-linejoin:miter;stroke-opacity:1"
       d="m 113.17145,107.05911 19.65475,-1e-5 c 0,0 0.0777,-7.710792 -9.4494,-7.937492 -9.52705,-0.2267 -10.20535,7.937502 -10.20535,7.937502 z"
       id="roof"
       inkscape:connector-curvature="0"
       sodipodi:nodetypes="cczc"
       inkscape:label="roof" />
    <path
       style="fill:#000000;fill-opacity:1;stroke:#000000;stroke-width:0.25px;stroke-linecap:butt;stroke-linejoin:miter;stroke-opacity:1"
       d="m 163.63127,225.36565 c -1.61163,-6.40021 -4.96917,-9.13556 -10.58334,-11.33929 -4.59232,-1.80262 -19.71154,-3.53917 -18.89881,4.34674 1.27648,12.38548 -10.09023,-3.32935 -21.16667,-15.87501 -5.40679,-1.96232 -7.77716,-2.02386 -12.6622,1.70089 -2.2392,-10.63834 -18.005667,-15.70571 -30.049106,-11.52826 -3.727962,-5.64994 -7.126762,-8.73144 -17.197917,-12.28424 -10.088759,-3.559 -20.810457,0.52202 -26.647319,3.02381 -9.961752,4.26979 -15.735192,11.778 -18.3318452,22.30059 -2.8491291,11.54573 1.9524692,23.01438 10.7723202,28.7262 10.709733,-12.43103 22.335033,-11.81077 31.183035,-10.39435 9.401403,1.50501 20.987045,7.57013 20.97768,17.5759 14.731708,3.95814 23.936865,4.52715 39.120532,4.34672 26.79751,-0.31843 69.39782,-18.44112 86.56212,-12.52857 8.66569,-1.72641 6.40633,-7.09637 2.76048,-8.60174 -6.49862,-2.64719 -26.66781,-2.70757 -35.83896,0.53061 z"
       id="ground"
       inkscape:connector-curvature="0"
       sodipodi:nodetypes="csscccssscscsccc"
       inkscape:label="ground" />
  </g>
</svg>
